<svg xmlns:mydata="http://www.w3.org/2000/svg" xmlns="http://www.w3.org/2000/svg" xmlns:xlink="http://www.w3.org/1999/xlink" mydata:contrastcolor="FF5E00" mydata:template="Contrast" mydata:presentation="2.5" mydata:layouttype="undefined" mydata:specialfontid="undefined" mydata:id1="661" mydata:id2="516" mydata:companyname="Fast Food" mydata:companytagline="Delivery" version="1.1" width="550" height="470" style=""><rect id="backgroundrect" width="100%" height="100%" x="0" y="0" fill="none" stroke="none"/><g class="currentLayer" style=""><title>Layer 1</title>
<path d="M211.3153229131167,73.70083195151503 c-11.075712259893148,13.65117955490499 -20.04426855149985,30.95125565177424 -26.923563355075665,51.87048563995789 c-6.8911319791454,20.919191260773957 -8.078224980699417,41.7638709852845 -3.59096442152014,62.5438759355955 c0.5994882080453336,3.0076093647366386 1.7984646241359998,8.197663175725173 3.59096442152014,15.584994030880827 c1.7984646241359998,7.412193852183259 2.979639037905228,12.796117076131603 3.596929248271998,16.171636833021292 c0.5876047935086844,3.3755197568896897 1.489819518952614,8.316982325011864 2.688795935043279,14.849250701394125 c1.1811744137692275,6.507444106764359 1.7094083735617365,11.453863783328172 1.561027528238369,14.829383540217862 c-0.14838084532337134,3.400382753917296 -0.29680792961381275,7.586196103966803 -0.43922394818532245,12.597290554730154 c-0.16026425986001794,5.016051559204992 -1.0505955707673067,8.95826950223948 -2.700679349579928,11.841641336657489 c-1.6382003642759824,2.8883289428596504 -3.6741020843096113,5.871114037978382 -6.048288087417647,9.007995496294692 c-2.4098362467179815,3.1517915110509347 -5.5497395444832245,5.6921159503434975 -9.43751189561717,7.700519417402151 c-3.881853763349156,2.008403467058654 -8.511530341099943,3.524659011645626 -13.901005625723148,4.523864909323612 c-11.360590536003238,2.4955942810886937 -21.379742398377232,0.88488258424263 -30.05750182608906,-4.886779465625321 c-8.671794600959961,-5.7816149941609405 -14.73196610291425,-13.457310141945186 -18.16863109132623,-23.116507032350775 c-3.448548402948631,-9.639368456639028 -5.698120389806592,-19.84043926357151 -6.736832546037242,-30.6331099810861 c-1.0505955707673067,-10.767846447896686 0.5163967842229299,-20.158584934259654 4.718732828325051,-28.182284585610983 c-15.568891406857219,11.548319935587257 -28.039448347343928,24.19529775696292 -37.47691400399404,37.97075356959625 c-9.425628481080519,13.775455812633322 -15.248362887137183,27.178082852081655 -17.497934873995145,40.192893610790975 c-2.2317699845365255,13.044669591588264 -3.3594921523743664,23.688239781756618 -3.3594921523743664,31.960453221154907 c0,8.262299222515008 0.7478690533687022,16.141816727552044 2.249571986857964,23.678286837463634 c2.68287734725849,14.019051219648341 9.259445633435712,28.9926169061805 19.729704858531672,44.89575660774947 c10.470259225095957,15.898221320537024 26.16972947495511,29.499674881386802 47.11621275189888,40.78948935722442 c9.259445633435712,5.2546511303686705 18.839373547624394,7.258097488985683 28.716063152459807,5.9854373514137285 c9.876689604835414,-1.242840032102706 19.136135238271134,-4.175899133166226 27.82573184155253,-8.824040300218169 c8.659957425390381,-4.618321061582694 17.18928976881176,-10.817533714542197 25.576159854694563,-18.59264212302717 c8.363149495776574,-7.755241247308705 15.53920598999913,-15.465713609003839 21.52220465591581,-23.12150286820212 c5.994882080453329,-7.635922098022014 11.218128278464661,-15.217122366137476 15.705388837643936,-22.72876820643116 c9.57992791418868,-16.5345126619133 15.408627146997203,-39.63115253308781 17.497934873995145,-69.33464977172741 c2.0833891392131565,-29.67363840576065 0.14246225753858138,-49.41966024448277 -5.828652993841454,-59.183266231440435 c23.629314385235197,20.03930451238266 41.86328113702946,40.590624108413266 54.73741178209154,61.624177410032274 c12.856374881707712,21.04846335435363 16.75598440841123,44.120240228500535 11.675200467938485,69.15073330306058 c-1.507621521274053,8.262299222515008 -4.576270570786472,16.967020373446488 -9.205993387504328,26.124155124497115 c-4.641559992287436,9.152138915199288 -10.256588958271628,19.228972191813142 -16.8212738299122,30.240375319315145 c-2.9974410402266654,4.772456152189973 -5.157956776510367,8.411438477270945 -6.517197452461051,10.911989866801278 c-1.3414386736292454,2.4955942810886937 -3.139903297765244,5.746799052840351 -5.377591870086557,9.763644714367357 c-2.2436071601061056,4.006892717234024 -3.59096442152014,6.939913090887845 -4.042071784242105,8.824040300218169 c-0.44518877493718145,1.8841272093303232 -0.896296137659139,4.260402341132326 -1.3473572614140354,7.1487312839919745 c-0.4570259505067596,2.8833331070083084 -0.07717283603761621,4.822143418835484 1.1218035800530528,5.8263451523648095 c1.1930578283058766,0.999244625087686 2.831258192581858,2.207229988460103 4.93244933411645,3.5693891698494977 c2.0952263147827366,1.3720733982726774 5.009575931186997,2.008403467058654 8.754886024782365,1.8841272093303232 c3.733472918025787,-0.114323313435348 8.29786007427561,-0.4374648199748389 13.687335358898816,-0.954475739474123 c5.371673282301769,-0.4821949781787018 11.669235641186626,-1.4863967117080261 18.84529213540918,-3.0026522562949975 c17.040862684521326,-4.991188562177387 30.65107144634959,-9.251590903309712 40.830487568583614,-12.771254079103995 c10.173497534449222,-3.49979601461802 23.255379858550846,-9.07758865152617 39.25757662580859,-16.708514913696845 c15.996231940505888,-7.655789259198281 29.012871082073616,-15.654587186112304 39.03202294444762,-24.046158502206985 c10.013233274589204,-8.39153258868498 19.81871487013887,-19.472567598828164 29.386805608757967,-33.272886408489086 c9.585892740940537,-13.780412921074962 16.601638736336007,-29.04230417282601 21.088899295515287,-45.85023234722358 c11.360590536003238,-43.08126128106032 4.7128142405402595,-85.84929527246443 -19.961177127677445,-128.324046590208 c-24.668026541465846,-42.47475131774359 -61.551417164166416,-77.36330653152037 -110.59662714423614,-104.66566564133038 c6.570649698392432,11.031309016087969 13.010674314815873,27.178082852081655 19.290434671379284,48.49000877462657 c11.651433638865186,39.83001778189896 6.88521339136061,59.10871596776732 -14.358031576229903,57.86091882722297 c-4.505062561500716,-0.49214792247168077 -9.419663654328662,-1.6156688052876969 -14.809138938951866,-3.3755197568896897 c-23.629314385235197,-8.272213439398291 -41.64956463123806,-20.799910838896967 -54.066715564760464,-37.58301474367663 c-12.411186106770536,-16.783103904779665 -18.999637807484408,-38.77609005431442 -19.74750686085311,-65.95913001483771 c-0.7419504655839209,-27.178082852081655 6.517197452461051,-59.426861638455456 21.7656065785653,-96.76128513926571 c-3.887772351133947,2.003407631207311 -8.968602530573763,4.941462568122174 -15.248362887137183,8.82903613606951 c-6.279760356563418,3.882577732095993 -17.129918935095585,12.204517165549497 -32.52670890652322,24.97577124465349 c-15.408627146997203,12.796117076131603 -28.65077373095884,26.009831811061765 -39.708683988530545,39.66101136596676 z" data-paper-data="{&quot;isPathIcon&quot;:true}" id="svg_2" class="selected"/></g></svg>