<svg xmlns:mydata="http://www.w3.org/2000/svg" mydata:contrastcolor="FF5E00" mydata:template="Contrast" mydata:presentation="2.5" mydata:layouttype="undefined" mydata:specialfontid="undefined" mydata:id1="661" mydata:id2="516" mydata:companyname="Fast Food" mydata:companytagline="Delivery" version="1.1" xmlns="http://www.w3.org/2000/svg" xmlns:xlink="http://www.w3.org/1999/xlink" viewBox="0 0 550 470" class="svg-primary-tile" ><g fill="#101820" fill-rule="none" stroke="none" stroke-width="1" stroke-linecap="butt" stroke-linejoin="miter" stroke-miterlimit="10" stroke-dasharray="" stroke-dashoffset="0" font-family="none" font-weight="none" font-size="none" text-anchor="none" style="mix-blend-mode: normal"><g data-paper-data="{&quot;isGlobalGroup&quot;:true,&quot;bounds&quot;:{&quot;x&quot;:194.18537638971708,&quot;y&quot;:115.00000000000001,&quot;width&quot;:161.62924722056584,&quot;height&quot;:240.00000000000006}}"><g data-paper-data="{&quot;isSecondaryText&quot;:true}" fill-rule="nonzero"><path d="M194.18538,342.3561v12.6439h3.17001c1.11989,0 1.79724,-0.44254 2.16753,-0.81282c0.37029,-0.37029 0.81282,-1.04764 0.81282,-2.16753v-6.6832c0,-1.11989 -0.44254,-1.79724 -0.81282,-2.16753c-0.37029,-0.37029 -1.04764,-0.81282 -2.16753,-0.81282zM196.44322,344.61394h0.91217c0.27094,0 0.47866,0.05419 0.57801,0.15353c0.09031,0.09031 0.1445,0.29803 0.1445,0.56898v6.6832c0,0.27094 -0.05419,0.47866 -0.1445,0.56898c-0.09934,0.09934 -0.30707,0.15353 -0.57801,0.15353h-0.91217z" data-paper-data="{&quot;glyphName&quot;:&quot;D&quot;,&quot;glyphIndex&quot;:0,&quot;firstGlyphOfWord&quot;:true,&quot;word&quot;:1}"></path><path d="M222.72578,344.61394v-2.25784h-5.0395v12.6439h5.0395v-2.25784h-2.78166v-2.93519h2.78166v-2.25784h-2.78166v-2.93519z" data-paper-data="{&quot;glyphName&quot;:&quot;E&quot;,&quot;glyphIndex&quot;:1,&quot;word&quot;:1}"></path><path d="M242.09353,352.74216v-10.38606h-2.25784v12.6439h5.0395v-2.25784z" data-paper-data="{&quot;glyphName&quot;:&quot;L&quot;,&quot;glyphIndex&quot;:2,&quot;word&quot;:1}"></path><path d="M262.10418,355v-12.6439h-2.25784v12.6439z" data-paper-data="{&quot;glyphName&quot;:&quot;I&quot;,&quot;glyphIndex&quot;:3,&quot;word&quot;:1}"></path><path d="M282.56829,355l2.70941,-12.6439h-2.31203l-1.40889,6.55676l-1.39986,-6.55676h-2.31203l2.70941,12.6439z" data-paper-data="{&quot;glyphName&quot;:&quot;V&quot;,&quot;glyphIndex&quot;:4,&quot;word&quot;:1}"></path><path d="M307.62118,344.61394v-2.25784h-5.0395v12.6439h5.0395v-2.25784h-2.78166v-2.93519h2.78166v-2.25784h-2.78166v-2.93519z" data-paper-data="{&quot;glyphName&quot;:&quot;E&quot;,&quot;glyphIndex&quot;:5,&quot;word&quot;:1}"></path><path d="M325.35538,342.3561v12.6439h2.25784v-4.45246h0.86701l0.74057,4.45246h2.28493l-0.86701,-5.21109l0.05419,-0.05419c0.37029,-0.37029 0.81282,-1.04764 0.81282,-2.16753v-2.23074c0,-1.11989 -0.44254,-1.79724 -0.81282,-2.16753c-0.37029,-0.37029 -1.04764,-0.81282 -2.16753,-0.81282zM327.61322,344.61394h0.91217c0.27094,0 0.47866,0.05419 0.57801,0.15353c0.09031,0.09031 0.1445,0.29803 0.1445,0.56898v2.23074c0,0.27094 -0.05419,0.47866 -0.1445,0.57801c-0.09934,0.09031 -0.30707,0.1445 -0.57801,0.1445h-0.91217z" data-paper-data="{&quot;glyphName&quot;:&quot;R&quot;,&quot;glyphIndex&quot;:6,&quot;word&quot;:1}"></path><path d="M353.19553,351.00814l2.61909,-8.65204h-2.35718l-1.39083,4.58793l-1.39083,-4.58793h-2.35718l2.61909,8.65204v3.99186h2.25784z" data-paper-data="{&quot;glyphName&quot;:&quot;Y&quot;,&quot;glyphIndex&quot;:7,&quot;lastGlyphOfWord&quot;:true,&quot;word&quot;:1}"></path></g><g data-paper-data="{&quot;isPrimaryText&quot;:true}" fill-rule="nonzero"><path d="M194.18538,333.97502h4.95922v-36.61557h8.67864v-4.83524h-8.67864v-23.5563h9.91844v-4.83524h-14.87766z" data-paper-data="{&quot;glyphName&quot;:&quot;F&quot;,&quot;glyphIndex&quot;:0,&quot;firstGlyphOfWord&quot;:true,&quot;word&quot;:1}"></path><path d="M220.67588,264.13267h-0.6199c-4.25666,0 -7.27352,2.02501 -7.27352,6.44699v63.35404h4.95922v-36.61557h4.95922v36.61557h4.95922v-63.35404c0,-4.42197 -2.85155,-6.44699 -6.98423,-6.44699zM222.70089,292.48288h-4.95922v-20.87005c0,-1.44644 0.08265,-2.68624 2.06634,-2.68624h1.0745c1.73573,0 1.81838,1.23981 1.81838,2.68624z" data-paper-data="{&quot;glyphName&quot;:&quot;A&quot;,&quot;glyphIndex&quot;:1,&quot;word&quot;:1}"></path><path d="M240.05816,292.52421h-0.41327c-1.52909,0 -2.27298,-1.28113 -2.27298,-3.09951v-17.35727c0,-1.81838 0.08265,-3.14084 2.06634,-3.14084h1.0745c1.73573,0 1.81838,1.11582 1.81838,2.56226v10.74498h4.95922v-11.65417c0,-4.42197 -2.85155,-6.44699 -6.98423,-6.44699h-0.6199c-4.25666,0 -7.27352,2.02501 -7.27352,6.44699v20.3328c0,4.79391 2.93421,6.44699 7.2322,6.44699h0.41327c1.52909,0 2.27298,1.28113 2.27298,3.09951v25.99458c0,1.81838 -0.08265,2.72757 -2.06634,2.72757h-1.03317c-1.77705,0 -1.85971,-1.11582 -1.85971,-2.56226v-10.74498h-4.95922v11.65417c0,4.42197 2.85155,6.44699 6.98423,6.44699h0.6199c4.25666,0 7.27352,-2.02501 7.27352,-6.44699v-28.55684c0,-4.79391 -2.93421,-6.44699 -7.2322,-6.44699z" data-paper-data="{&quot;glyphName&quot;:&quot;S&quot;,&quot;glyphIndex&quot;:2,&quot;word&quot;:1}"></path><path d="M256.17563,333.97502h4.95922v-65.00711h5.78576v-4.83524h-16.53073v4.83524h5.78576z" data-paper-data="{&quot;glyphName&quot;:&quot;T&quot;,&quot;glyphIndex&quot;:3,&quot;lastGlyphOfWord&quot;:true,&quot;word&quot;:1}"></path><path d="M282.6248,333.97502h4.95922v-36.61557h8.67864v-4.83524h-8.67864v-23.5563h9.91844v-4.83524h-14.87766z" data-paper-data="{&quot;glyphName&quot;:&quot;F&quot;,&quot;glyphIndex&quot;:4,&quot;firstGlyphOfWord&quot;:true,&quot;word&quot;:2}"></path><path d="M308.4954,264.13267c-4.25666,0 -7.27352,2.02501 -7.27352,6.44699v56.94838c0,4.42197 3.01686,6.44699 7.27352,6.44699h0.6199c4.13268,0 6.98423,-2.02501 6.98423,-6.44699v-56.94838c0,-4.42197 -2.85155,-6.44699 -6.98423,-6.44699zM308.24744,329.13978c-1.98369,0 -2.06634,-1.11582 -2.06634,-2.56226v-55.04734c0,-1.44644 0.08265,-2.56226 2.06634,-2.56226h1.0745c1.73573,0 1.81838,1.11582 1.81838,2.56226v55.04734c0,1.44644 -0.08265,2.56226 -1.81838,2.56226z" data-paper-data="{&quot;glyphName&quot;:&quot;O&quot;,&quot;glyphIndex&quot;:5,&quot;word&quot;:2}"></path><path d="M328.33228,264.13267c-4.25666,0 -7.27352,2.02501 -7.27352,6.44699v56.94838c0,4.42197 3.01686,6.44699 7.27352,6.44699h0.6199c4.13268,0 6.98423,-2.02501 6.98423,-6.44699v-56.94838c0,-4.42197 -2.85155,-6.44699 -6.98423,-6.44699zM328.08432,329.13978c-1.98369,0 -2.06634,-1.11582 -2.06634,-2.56226v-55.04734c0,-1.44644 0.08265,-2.56226 2.06634,-2.56226h1.0745c1.73573,0 1.81838,1.11582 1.81838,2.56226v55.04734c0,1.44644 -0.08265,2.56226 -1.81838,2.56226z" data-paper-data="{&quot;glyphName&quot;:&quot;O&quot;,&quot;glyphIndex&quot;:6,&quot;word&quot;:2}"></path><path d="M347.9212,333.97502c4.42197,0 7.89343,-1.0745 7.89343,-6.44699v-56.94838c0,-4.83524 -3.76074,-6.44699 -7.89343,-6.44699h-7.02556v69.84235zM350.8554,326.04027c0,1.81838 -0.78521,3.09951 -2.93421,3.09951h-2.06634v-60.2132h2.06634c2.149,0 2.93421,1.32246 2.93421,3.14084z" data-paper-data="{&quot;glyphName&quot;:&quot;D&quot;,&quot;glyphIndex&quot;:7,&quot;lastGlyphOfWord&quot;:true,&quot;word&quot;:2}"></path></g><g data-paper-data="{&quot;isIcon&quot;:&quot;true&quot;,&quot;iconType&quot;:&quot;icon&quot;,&quot;rawIconId&quot;:&quot;68987&quot;,&quot;selectedEffects&quot;:{&quot;container&quot;:&quot;&quot;,&quot;transformation&quot;:&quot;&quot;,&quot;pattern&quot;:&quot;&quot;},&quot;isDetailed&quot;:false,&quot;fillRule&quot;:&quot;evenodd&quot;,&quot;bounds&quot;:{&quot;x&quot;:226.82380738832202,&quot;y&quot;:115.00000000000001,&quot;width&quot;:96.35238522335598,&quot;height&quot;:120.57071244836975},&quot;iconStyle&quot;:&quot;standalone&quot;,&quot;suitableAsStandaloneIcon&quot;:true}" fill-rule="evenodd"><path d="M261.46603,133.96999c-2.39532,3.52494 -4.33493,7.99208 -5.8227,13.39374c-1.49033,5.40165 -1.74706,10.78406 -0.77661,16.14977c0.12965,0.77661 0.38895,2.11676 0.77661,4.02428c0.38895,1.91394 0.6444,3.30415 0.7779,4.17576c0.12708,0.87161 0.3222,2.14757 0.5815,3.8343c0.25545,1.68032 0.36969,2.95756 0.3376,3.82917c-0.03209,0.87803 -0.06419,1.95887 -0.09499,3.25281c-0.03466,1.29522 -0.22721,2.31316 -0.58407,3.05769c-0.35429,0.74581 -0.79459,1.51601 -1.30805,2.326c-0.52117,0.81384 -1.20023,1.46979 -2.04103,1.98839c-0.83952,0.5186 -1.84077,0.91012 -3.00634,1.16813c-2.45693,0.6444 -4.62375,0.22849 -6.50047,-1.26184c-1.87543,-1.4929 -3.18605,-3.47488 -3.92929,-5.96903c-0.74581,-2.48903 -1.23232,-5.1231 -1.45696,-7.90993c-0.22721,-2.78042 0.11168,-5.20525 1.02051,-7.27709c-3.36705,2.98195 -6.06403,6.24759 -8.10505,9.80462c-2.03846,3.55703 -3.29773,7.01779 -3.78424,10.37841c-0.48266,3.36833 -0.72655,6.11666 -0.72655,8.25267c0,2.13345 0.16174,4.16806 0.48651,6.11409c0.58022,3.61993 2.00252,7.48633 4.2669,11.59276c2.26438,4.10516 5.65967,7.61726 10.18972,10.53246c2.00252,1.35683 4.07435,1.87415 6.21036,1.54553c2.13601,-0.32092 4.13853,-1.07828 6.01781,-2.2785c1.87287,-1.19252 3.71749,-2.79325 5.5313,-4.8009c1.80868,-2.00252 3.36063,-3.99348 4.65456,-5.97032c1.2965,-1.97171 2.42612,-3.92929 3.39657,-5.86891c2.07183,-4.26946 3.33239,-10.23336 3.78424,-17.90325c0.45057,-7.66218 0.03081,-12.7609 -1.26055,-15.28201c5.11026,5.17445 9.05368,10.48111 11.83794,15.91229c2.78042,5.43503 3.62378,11.39251 2.52497,17.85576c-0.32605,2.13345 -0.9897,4.38114 -1.99096,6.74565c-1.00382,2.36322 -2.21817,4.96521 -3.6379,7.80852c-0.64825,1.23232 -1.1155,2.17196 -1.40946,2.81764c-0.29011,0.6444 -0.67906,1.48391 -1.163,2.52112c-0.48522,1.03464 -0.77661,1.79199 -0.87417,2.2785c-0.09628,0.48651 -0.19384,1.1001 -0.29139,1.84591c-0.09884,0.74452 -0.01669,1.24515 0.24261,1.50445c0.25802,0.25802 0.61231,0.56994 1.06673,0.92167c0.45313,0.35429 1.08341,0.5186 1.8934,0.48651c0.80743,-0.02952 1.79456,-0.11296 2.96013,-0.24646c1.16172,-0.12451 2.52368,-0.38381 4.07563,-0.77533c3.68539,-1.2888 6.62884,-2.3889 8.83032,-3.29773c2.2002,-0.9037 5.02939,-2.34397 8.49015,-4.31439c3.45947,-1.97684 6.27455,-4.04225 8.44137,-6.20908c2.16554,-2.16682 4.28615,-5.02811 6.35542,-8.59156c2.07312,-3.55831 3.5904,-7.49916 4.56085,-11.83922c2.45693,-11.12423 1.01923,-22.16758 -4.31696,-33.1352c-5.3349,-10.96762 -13.31159,-19.97637 -23.91849,-27.02625c1.42102,2.84845 2.81379,7.01779 4.1719,12.52085c2.51983,10.28471 1.48905,15.26276 -3.10518,14.94056c-0.9743,-0.12708 -2.03717,-0.41719 -3.20274,-0.87161c-5.11026,-2.13601 -9.00746,-5.37085 -11.69289,-9.7045c-2.68414,-4.33365 -4.10901,-10.01257 -4.27075,-17.03164c-0.16046,-7.01779 1.40946,-15.34491 4.7072,-24.98522c-0.8408,0.51731 -1.93962,1.27596 -3.29773,2.27979c-1.35811,1.00254 -3.70465,3.15139 -7.03448,6.44912c-3.33239,3.30415 -6.19624,6.71613 -8.58771,10.24107z" data-paper-data="{&quot;isPathIcon&quot;:true}"></path></g></g></g></svg>