<?xml version="1.0" ?><svg style="enable-background:new 0 0 16 16;" version="1.1" viewBox="0 0 16 16" xml:space="preserve" xmlns="http://www.w3.org/2000/svg" xmlns:xlink="http://www.w3.org/1999/xlink"><g id="Guide"/><g id="Layer_2"><path d="M13.85,7.6l-0.84-0.83C13,6.75,12.99,6.74,12.97,6.72L8.35,2.15c-0.19-0.19-0.51-0.19-0.7,0L3.03,6.72   C3.01,6.74,2.99,6.75,2.98,6.77L2.15,7.59c-0.2,0.19-0.2,0.51,0,0.71c0.19,0.2,0.51,0.2,0.71,0v5.2c0,0.28,0.22,0.5,0.5,0.5h2.53   H9.9h2.75c0.28,0,0.5-0.22,0.5-0.5V8.3l0,0c0.1,0.1,0.22,0.15,0.35,0.15c0.13,0,0.26-0.05,0.36-0.15   C14.05,8.11,14.05,7.79,13.85,7.6z M6.38,13V8.92H9.4V13H6.38z M12.14,13H10.4V8.42c0-0.28-0.22-0.5-0.5-0.5H5.88   c-0.28,0-0.5,0.22-0.5,0.5V13H3.85V7.31L8,3.2l4.15,4.11V13z"/></g></svg>